# Blender v2.82 (sub 7) OBJ File: 'bridge.blend'
# www.blender.org
mtllib bridge.mtl
o bridge
v 0.612766 2.439486 -2.466419
v 0.612766 2.439486 2.432872
v -0.612766 2.439486 -0.016774
v -0.612766 2.439486 -2.466419
v -0.612766 2.439486 2.432872
v -0.612766 1.825772 1.461202
v 0.612766 2.065207 -0.009038
v 0.612766 1.825772 1.461202
v 0.612766 1.825772 -1.479277
v -0.612766 1.825772 -1.479277
v 0.612766 1.377797 -1.981843
v -0.612766 1.377797 -1.981843
v -0.612766 1.377797 1.947049
v -0.612766 2.065207 -0.009038
v 0.612766 2.439486 -0.016774
v 0.612766 1.377797 1.947049
v 0.612766 -0.043366 -2.466419
v 0.612766 -0.043366 2.432872
v -0.612766 -0.043366 -2.466419
v -0.612766 -0.043366 2.432872
v 0.612766 -0.043366 -2.335217
v -0.612766 -0.043366 -2.335217
v -0.612766 -0.043366 2.300424
v 0.612766 -0.043366 2.300424
v -0.538447 2.372103 2.234468
v -0.538447 2.590412 1.944307
v -0.538447 2.372103 -2.234468
v -0.538447 2.590412 -1.977970
v -0.428757 2.372103 2.234468
v -0.428757 2.590412 1.944307
v -0.428757 2.372103 -2.234468
v -0.428757 2.590412 -1.977970
v 0.437241 2.372103 2.234468
v 0.437241 2.590412 1.944307
v 0.437241 2.372103 -2.234468
v 0.437241 2.590412 -1.977970
v 0.546931 2.372103 2.234468
v 0.546931 2.590412 1.944307
v 0.546931 2.372103 -2.234468
v 0.546931 2.590412 -1.977970
vt 0.334762 0.661225
vt 0.477909 0.595657
vt 0.669524 0.643349
vt 0.669524 0.661225
vt 0.082747 0.527997
vt 0.000000 0.661225
vt 0.000000 0.330613
vt 0.050464 0.329569
vt 0.000000 0.000000
vt 0.082747 0.131140
vt 0.834762 0.198428
vt 1.000000 0.198428
vt 1.000000 0.396857
vt 0.834762 0.396857
vt 0.417509 0.530085
vt 0.834762 0.330613
vt 0.669524 0.330613
vt 0.669524 0.000000
vt 0.834762 0.000000
vt 0.495714 0.729482
vt 0.330476 0.729482
vt 0.330476 0.661225
vt 0.495714 0.661225
vt 0.143147 0.595825
vt 0.385226 0.331657
vt 0.334762 0.330612
vt 0.334762 0.000000
vt 0.417509 0.133228
vt 0.495714 0.925662
vt 0.330476 0.925662
vt 0.477909 0.065400
vt 0.143147 0.065568
vt 0.495714 0.661225
vt 0.660952 0.661225
vt 0.660952 0.729207
vt 0.495714 0.729207
vt 0.834762 0.000000
vt 1.000000 0.000000
vt 0.834762 0.661225
vt 0.669524 0.661225
vt 0.334762 0.643517
vt 0.334762 0.661225
vt 0.660951 0.925387
vt 0.495714 0.925387
vt 0.165238 0.661225
vt 0.330476 0.661225
vt 0.330476 0.993834
vt 0.165238 0.993834
vt 0.669524 0.000000
vt 0.669524 0.017708
vt 0.000000 0.661225
vt 0.165238 0.661225
vt 0.165238 0.993834
vt 0.000000 0.993834
vt 0.334762 0.000000
vt 0.334762 0.017876
vt 0.687382 0.661225
vt 0.687382 0.826627
vt 0.669524 0.826627
vt 0.705072 0.661225
vt 0.705072 0.826627
vt 0.687382 0.826627
vt 0.687382 0.661225
vt 0.952501 1.000000
vt 0.923066 0.960839
vt 0.923066 0.431475
vt 0.952501 0.396857
vt 0.967290 0.396857
vt 0.967290 0.431475
vt 0.952501 0.431475
vt 0.952501 0.396857
vt 0.893632 1.000000
vt 0.864197 0.965382
vt 0.864197 0.436018
vt 0.893631 0.396857
vt 0.952501 1.000000
vt 0.952501 0.960839
vt 0.967290 0.960839
vt 0.967290 1.000000
vt 0.923066 1.000000
vt 0.893632 0.960839
vt 0.893632 0.431475
vt 0.923066 0.396857
vt 0.967290 1.000000
vt 0.967290 0.965382
vt 0.982080 0.965382
vt 0.982080 1.000000
vt 0.864197 1.000000
vt 0.834762 0.965382
vt 0.834762 0.436018
vt 0.864197 0.396857
vt 0.982080 0.396857
vt 0.982080 0.436018
vt 0.967290 0.436018
vt 0.967290 0.396857
vn -1.0000 -0.0000 0.0000
vn 1.0000 -0.0000 0.0000
vn 0.0000 -0.9870 -0.1607
vn 0.0000 1.0000 0.0000
vn 0.0000 -0.7465 0.6654
vn 0.0000 -0.2413 0.9704
vn 0.0000 -0.7352 -0.6779
vn 0.0000 -0.9870 0.1607
vn 0.0000 -0.2413 -0.9704
vn 0.0000 0.0000 -1.0000
vn 0.0000 0.0000 1.0000
vn 0.0000 -1.0000 -0.0000
vn 0.0000 0.7615 -0.6481
vn 0.0000 0.7991 0.6012
usemtl mat1
s off
f 5/1/1 13/2/1 23/3/1 20/4/1
f 9/5/2 1/6/2 15/7/2 7/8/2
f 7/8/2 15/7/2 2/9/2 8/10/2
f 14/11/3 7/12/3 8/13/3 6/14/3
f 13/2/1 5/1/1 6/15/1
f 15/16/4 3/17/4 5/18/4 2/19/4
f 12/20/5 11/21/5 9/22/5 10/23/5
f 11/24/2 1/6/2 9/5/2
f 14/25/1 3/26/1 4/27/1 10/28/1
f 11/21/6 12/20/6 22/29/6 21/30/6
f 10/28/1 4/27/1 12/31/1
f 8/10/2 2/9/2 16/32/2
f 6/33/7 8/34/7 16/35/7 13/36/7
f 10/37/8 9/38/8 7/12/8 14/11/8
f 1/39/4 4/40/4 3/17/4 15/16/4
f 6/15/1 5/1/1 3/26/1 14/25/1
f 1/6/2 11/24/2 21/41/2 17/42/2
f 13/36/9 16/35/9 24/43/9 23/44/9
f 4/45/10 1/46/10 17/47/10 19/48/10
f 12/31/1 4/27/1 19/49/1 22/50/1
f 2/51/11 5/52/11 20/53/11 18/54/11
f 16/32/2 2/9/2 18/55/2 24/56/2
f 23/57/12 24/58/12 18/59/12 20/4/12
f 19/60/12 17/61/12 21/62/12 22/63/12
usemtl mat2
f 25/64/1 26/65/1 28/66/1 27/67/1
f 27/68/13 28/69/13 32/70/13 31/71/13
f 31/72/2 32/73/2 30/74/2 29/75/2
f 29/76/14 30/77/14 26/78/14 25/79/14
f 33/80/1 34/81/1 36/82/1 35/83/1
f 32/70/4 28/69/4 26/78/4 30/77/4
f 35/84/13 36/85/13 40/86/13 39/87/13
f 39/88/2 40/89/2 38/90/2 37/91/2
f 37/92/14 38/93/14 34/94/14 33/95/14
f 40/86/4 36/85/4 34/94/4 38/93/4
