# Blender v2.82 (sub 7) OBJ File: 'tile_flat.blend'
# www.blender.org
mtllib tile_flat.mtl
o tile_flat
v 20.000000 0.000000 -20.000000
v 20.000000 -40.000000 -20.000000
v 20.000000 0.000000 20.000000
v 20.000000 -40.000000 20.000000
v -20.000000 0.000000 -20.000000
v -20.000000 -40.000000 -20.000000
v -20.000000 0.000000 20.000000
v -20.000000 -40.000000 20.000000
vt 0.000000 0.000000
vt 1.000000 0.000000
vt 1.000000 1.000000
vt 0.000000 1.000000
vt 0.000000 0.000000
vt 1.000000 0.000000
vt 1.000000 1.000000
vt 0.000000 1.000000
vt 1.000000 0.000000
vt 1.000000 1.000000
vt 0.000000 1.000000
vt 0.000000 0.000000
vt 1.000000 0.000000
vt 1.000000 1.000000
vt 0.000000 1.000000
vt 0.000000 0.000000
vt 1.000000 1.000000
vt 0.000000 1.000000
vt 0.000000 0.000000
vt 1.000000 0.000000
vn 0.0000 0.0000 -1.0000
vn 1.0000 0.0000 0.0000
vn 0.0000 -1.0000 0.0000
vn -1.0000 0.0000 0.0000
vn 0.0000 1.0000 0.0000
vn 0.0000 0.0000 1.0000
usemtl mat1
s off
f 6/1/1 5/2/1 1/3/1 2/4/1
f 2/5/2 1/6/2 3/7/2 4/8/2
f 6/1/3 2/9/3 4/10/3 8/11/3
f 8/12/4 7/13/4 5/14/4 6/15/4
f 1/16/5 5/2/5 7/17/5 3/18/5
f 4/19/6 3/20/6 7/17/6 8/11/6
