# Blender v2.82 (sub 7) OBJ File: 'tree.blend'
# www.blender.org
mtllib tree.mtl
o tree
v 0.000000 -0.793529 0.000000
v -0.000000 0.000000 -1.190975
v -0.229493 2.330817 -0.465910
v 1.031415 0.000000 -0.595487
v 0.017255 2.330817 -0.323450
v 1.031414 0.000000 0.595488
v 0.017255 2.330817 -0.038529
v -0.000000 0.000000 1.190975
v -0.229493 2.330817 0.103931
v -1.031415 0.000000 0.595487
v -0.476242 2.330817 -0.038529
v -1.031415 0.000000 -0.595487
v -0.476242 2.330817 -0.323450
v -0.000000 0.431301 -0.544208
v 0.471298 0.431301 -0.272104
v 0.471298 0.431301 0.272104
v -0.000000 0.431301 0.544208
v -0.471298 0.431301 0.272104
v -0.471298 0.431301 -0.272104
v -0.000000 5.624309 0.000000
v -0.052123 3.618948 -0.037018
v 1.395542 4.456716 1.077466
v -0.732200 4.409207 1.886710
v -2.100414 4.503973 -0.221200
v -0.653880 4.404555 -2.031178
v 1.298921 4.522412 -1.038225
v 0.470295 6.059101 1.785895
v -1.675724 6.006888 1.078503
v -1.562907 5.810048 -1.147397
v 0.505018 5.871895 -1.956722
v 1.695325 5.895247 -0.056773
v -0.032825 6.976282 -0.098890
v -1.233567 2.927788 0.684987
v -0.111780 2.782602 -0.039286
v -0.242953 2.492310 -0.047012
v -0.311411 2.738182 -0.237787
vt 0.000000 0.000000
vt 1.000000 0.000000
vt 1.000000 1.000000
vt 0.000000 0.000000
vt 1.000000 0.000000
vt 1.000000 1.000000
vt 0.000000 0.000000
vt 1.000000 0.000000
vt 1.000000 1.000000
vt 0.000000 1.000000
vt 1.000000 0.000000
vt 1.000000 1.000000
vt 0.000000 0.000000
vt 1.000000 0.000000
vt 0.000000 0.000000
vt 1.000000 1.000000
vt 0.000000 1.000000
vt 1.000000 0.000000
vt 1.000000 1.000000
vt 0.000000 0.000000
vt 1.000000 0.000000
vt 0.000000 0.000000
vt 1.000000 0.000000
vt 1.000000 1.000000
vt 0.000000 1.000000
vt 1.000000 0.000000
vt 1.000000 1.000000
vt 0.000000 0.000000
vt 0.000000 0.000000
vt 1.000000 1.000000
vt 0.000000 1.000000
vt 1.000000 0.000000
vt 1.000000 1.000000
vt 0.000000 0.000000
vt 0.000000 0.000000
vt 1.000000 1.000000
vt 0.000000 1.000000
vt 1.000000 0.000000
vt 1.000000 1.000000
vt 0.000000 0.000000
vt 1.000000 0.000000
vt 0.000000 0.000000
vt 1.000000 1.000000
vt 0.000000 1.000000
vt 0.000000 0.000000
vt 1.000000 0.000000
vt 1.000000 1.000000
vt 0.000000 1.000000
vt 0.000000 0.000000
vt 1.000000 0.000000
vt 1.000000 1.000000
vt 0.000000 1.000000
vt 0.000000 0.000000
vt 1.000000 0.000000
vt 1.000000 1.000000
vt 0.000000 1.000000
vt 0.000000 0.000000
vt 1.000000 0.000000
vt 1.000000 1.000000
vt 0.000000 1.000000
vt 0.000000 0.000000
vt 1.000000 0.000000
vt 1.000000 1.000000
vt 0.000000 1.000000
vt 0.000000 0.000000
vt 1.000000 0.000000
vt 1.000000 1.000000
vt 0.000000 1.000000
vt 0.000000 0.000000
vt 1.000000 0.000000
vt 1.000000 1.000000
vt 0.000000 0.000000
vt 1.000000 1.000000
vt 0.000000 0.000000
vt 1.000000 0.000000
vt 0.000000 0.000000
vt 1.000000 0.000000
vt 1.000000 1.000000
vt 0.000000 0.000000
vt 1.000000 0.000000
vt 1.000000 1.000000
vt 1.000000 0.000000
vt 1.000000 1.000000
vt 1.000000 0.000000
vt 1.000000 1.000000
vt 1.000000 0.000000
vt 1.000000 0.000000
vt 1.000000 1.000000
vt 0.000000 0.000000
vt 1.000000 1.000000
vt 0.000000 0.000000
vt 1.000000 1.000000
vt 0.000000 0.000000
vt 1.000000 1.000000
vt 0.000000 0.000000
vt 1.000000 1.000000
vt 1.000000 0.000000
vt 1.000000 0.000000
vt 1.000000 0.000000
vt 1.000000 0.000000
vt 1.000000 0.000000
vt 0.000000 0.000000
vt 1.000000 1.000000
vt 0.000000 0.000000
vt 0.000000 0.000000
vt 0.000000 0.000000
vt 0.000000 0.000000
vn 0.3049 -0.7926 -0.5281
vn 1.0000 0.0052 -0.0000
vn 0.4977 0.0957 -0.8621
vn 0.6098 -0.7926 0.0000
vn -0.9897 0.1431 0.0000
vn 0.9726 0.2325 0.0000
vn 0.3049 -0.7926 0.5281
vn -0.4990 0.0620 0.8644
vn 0.4838 0.2527 0.8379
vn -0.3049 -0.7926 0.5281
vn 0.5000 -0.0075 0.8660
vn -0.4951 0.1390 0.8576
vn -0.6098 -0.7926 0.0000
vn 0.4981 0.0873 -0.8627
vn -1.0000 -0.0026 0.0000
vn -0.3049 -0.7926 -0.5281
vn -0.4939 0.1554 -0.8555
vn -0.4998 -0.0247 -0.8658
vn -0.3051 0.7923 -0.5284
vn -0.6101 0.7923 0.0000
vn -0.3051 0.7923 0.5284
vn 0.3051 0.7923 0.5284
vn 0.6101 0.7923 0.0000
vn 0.3051 0.7923 -0.5284
vn 0.5024 -0.2490 0.8280
vn -0.6342 -0.5764 -0.5153
vn -0.0089 0.9777 -0.2098
vn 0.1826 -0.8851 0.4281
vn 0.5291 -0.8471 -0.0505
vn -0.4035 -0.8876 0.2220
vn -0.3662 -0.8982 -0.2433
vn 0.2668 -0.8665 -0.4219
vn 0.9687 -0.2427 -0.0518
vn 0.3522 -0.2008 0.9141
vn -0.8226 -0.2207 0.5240
vn -0.7790 -0.1164 -0.6162
vn 0.4458 -0.3094 -0.8400
vn 0.8179 0.2414 0.5223
vn -0.3067 0.2792 0.9099
vn -0.9400 0.3322 -0.0770
vn -0.3532 0.3235 -0.8778
vn 0.8390 0.1347 -0.5273
vn 0.5069 0.8206 0.2640
vn -0.1754 0.8660 0.4682
vn -0.5583 0.8234 -0.1011
vn -0.2378 0.8031 -0.5463
vn 0.5068 0.7975 -0.3273
usemtl mat1
s off
f 1/1/1 2/2/1 4/3/1
f 7/4/2 5/5/2 20/6/2
f 14/7/3 3/8/3 5/9/3 15/10/3
f 1/1/4 4/11/4 6/12/4
f 13/13/5 11/14/5 20/6/5
f 15/15/6 5/5/6 7/16/6 16/17/6
f 1/1/7 6/18/7 8/19/7
f 11/20/8 9/21/8 20/6/8
f 16/22/9 7/23/9 9/24/9 17/25/9
f 1/1/10 8/26/10 10/27/10
f 9/28/11 7/23/11 20/6/11
f 17/29/12 9/21/12 11/30/12 18/31/12
f 1/1/13 10/32/13 12/33/13
f 5/34/14 3/8/14 20/6/14
f 18/35/15 11/14/15 13/36/15 19/37/15
f 1/1/16 12/38/16 2/39/16
f 3/40/17 13/41/17 20/6/17
f 19/42/18 13/41/18 3/43/18 14/44/18
f 12/45/19 19/46/19 14/47/19 2/48/19
f 10/49/20 18/50/20 19/51/20 12/52/20
f 8/53/21 17/54/21 18/55/21 10/56/21
f 6/57/22 16/58/22 17/59/22 8/60/22
f 4/61/23 15/62/23 16/63/23 6/64/23
f 2/65/24 14/66/24 15/67/24 4/68/24
f 33/69/25 35/70/25 34/71/25
f 36/72/26 35/70/26 33/73/26
f 34/74/27 36/75/27 33/73/27
usemtl mat2
f 21/76/28 22/77/28 23/78/28
f 22/79/29 21/80/29 26/81/29
f 21/76/30 23/82/30 24/83/30
f 21/76/31 24/84/31 25/85/31
f 21/76/32 25/86/32 26/81/32
f 22/79/33 26/87/33 31/88/33
f 23/89/34 22/77/34 27/90/34
f 24/91/35 23/82/35 28/92/35
f 25/93/36 24/84/36 29/94/36
f 26/95/37 25/86/37 30/96/37
f 22/79/38 31/97/38 27/90/38
f 23/89/39 27/98/39 28/92/39
f 24/91/40 28/99/40 29/94/40
f 25/93/41 29/100/41 30/96/41
f 26/95/42 30/101/42 31/88/42
f 27/102/43 31/97/43 32/103/43
f 28/104/44 27/98/44 32/103/44
f 29/105/45 28/99/45 32/103/45
f 30/106/46 29/100/46 32/103/46
f 31/107/47 30/101/47 32/103/47
