# Blender v2.82 (sub 7) OBJ File: 'tree.blend'
# www.blender.org
mtllib tree.mtl
o tree
v 0.000000 -0.793529 0.000000
v -0.000000 0.000000 -1.190975
v -0.229493 2.330817 -0.465910
v 1.031415 0.000000 -0.595487
v 0.017255 2.330817 -0.323450
v 1.031414 0.000000 0.595488
v 0.017255 2.330817 -0.038529
v -0.000000 0.000000 1.190975
v -0.229493 2.330817 0.103931
v -1.031415 0.000000 0.595487
v -0.476242 2.330817 -0.038529
v -1.031415 0.000000 -0.595487
v -0.476242 2.330817 -0.323450
v -0.000000 0.431301 -0.544208
v 0.471298 0.431301 -0.272104
v 0.471298 0.431301 0.272104
v -0.000000 0.431301 0.544208
v -0.471298 0.431301 0.272104
v -0.471298 0.431301 -0.272104
v -0.000000 5.624309 0.000000
v -0.052123 3.618948 -0.037018
v 1.395542 4.456716 1.077466
v -0.732200 4.409207 1.886710
v -2.100414 4.503973 -0.221200
v -0.653880 4.404555 -2.031178
v 1.298921 4.522412 -1.038225
v 0.470295 6.059101 1.785895
v -1.675724 6.006888 1.078503
v -1.562907 5.810048 -1.147397
v 0.505018 5.871895 -1.956722
v 1.695325 5.895247 -0.056773
v -0.032825 6.976282 -0.098890
v -1.233567 2.927788 0.684987
v -0.111780 2.782602 -0.039286
v -0.242953 2.492310 -0.047012
v -0.311411 2.738182 -0.237787
vt 0.341269 0.743080
vt 0.341269 0.858014
vt 0.231453 0.781286
vt 0.643912 0.785677
vt 0.626093 0.785463
vt 0.648122 0.414837
vt 0.559712 0.994328
vt 0.552953 0.780829
vt 0.584939 0.782566
vt 0.620806 0.997644
vt 0.842480 0.769534
vt 0.906338 0.720648
vt 0.906338 0.853565
vt 0.756732 0.278436
vt 0.788582 0.275097
vt 0.831997 0.647271
vt 0.112612 0.830070
vt 0.129358 0.966408
vt 0.101672 0.979805
vt 0.059732 0.855660
vt 0.802601 0.913104
vt 0.804261 0.277904
vt 0.620806 1.000000
vt 0.675876 0.785677
vt 0.681859 1.000000
vt 0.698864 0.839727
vt 0.830418 0.066979
vt 0.800471 0.061618
vt 0.698864 0.706811
vt 0.620806 0.414837
vt 0.739637 0.067996
vt 0.802601 0.647271
vt 0.740561 0.284582
vt 0.708749 0.079735
vt 0.231453 0.924886
vt 0.165493 0.913145
vt 0.165493 0.858813
vt 0.231453 0.805982
vt 0.831997 0.000000
vt 0.698864 0.013959
vt 0.000000 0.917985
vt 0.059732 0.909992
vt 0.112612 0.938734
vt 0.115727 0.980887
vt 0.000000 0.799082
vt 0.115727 0.743080
vt 0.865649 0.565379
vt 0.831997 0.422340
vt 0.865649 0.414149
vt 0.341269 0.748917
vt 0.367261 0.743080
vt 0.367261 0.889218
vt 0.865649 0.417102
vt 0.896887 0.414149
vt 0.896887 0.554308
vt 0.494109 0.177808
vt 0.478236 0.000000
vt 0.698864 0.042170
vt 0.370326 0.210073
vt 0.698864 0.324052
vt 0.471254 0.414837
vt 1.000000 0.000000
vt 0.984750 0.126319
vt 0.833142 0.034222
vt 0.552953 0.448947
vt 0.552953 0.698796
vt 0.370326 0.571407
vt 0.179865 0.632460
vt 0.000000 0.483557
vt 0.165187 0.405402
vt 0.356328 0.743080
vt 0.355871 0.569461
vt 1.000000 0.372707
vt 0.831997 0.255909
vt 0.392523 0.801071
vt 0.371588 0.414837
vt 0.848251 0.414149
vt 0.040587 0.375266
vt 0.000000 0.147052
vt 0.202052 0.249128
vt 0.284101 0.375266
vt 0.356328 0.375266
vt 0.204772 0.000000
vt 0.370326 0.145163
vn 0.3049 -0.7926 -0.5281
vn 1.0000 0.0052 -0.0000
vn 0.4977 0.0957 -0.8621
vn 0.6098 -0.7926 0.0000
vn -0.9897 0.1431 0.0000
vn 0.9726 0.2325 0.0000
vn 0.3049 -0.7926 0.5281
vn -0.4990 0.0620 0.8644
vn 0.4838 0.2527 0.8379
vn -0.3049 -0.7926 0.5281
vn 0.5000 -0.0075 0.8660
vn -0.4951 0.1390 0.8576
vn -0.6098 -0.7926 0.0000
vn 0.4981 0.0873 -0.8627
vn -1.0000 -0.0026 0.0000
vn -0.3049 -0.7926 -0.5281
vn -0.4939 0.1554 -0.8555
vn -0.4998 -0.0247 -0.8658
vn -0.3051 0.7923 -0.5284
vn -0.6101 0.7923 0.0000
vn -0.3051 0.7923 0.5284
vn 0.3051 0.7923 0.5284
vn 0.6101 0.7923 0.0000
vn 0.3051 0.7923 -0.5284
vn 0.5024 -0.2490 0.8280
vn -0.6342 -0.5764 -0.5153
vn -0.0089 0.9777 -0.2098
vn 0.1826 -0.8851 0.4281
vn 0.5291 -0.8471 -0.0505
vn -0.4035 -0.8876 0.2220
vn -0.3662 -0.8982 -0.2433
vn 0.2668 -0.8665 -0.4219
vn 0.9687 -0.2427 -0.0518
vn 0.3522 -0.2008 0.9141
vn -0.8226 -0.2207 0.5240
vn -0.7790 -0.1164 -0.6162
vn 0.4458 -0.3094 -0.8400
vn 0.8179 0.2414 0.5223
vn -0.3067 0.2792 0.9099
vn -0.9400 0.3322 -0.0770
vn -0.3532 0.3235 -0.8778
vn 0.8390 0.1347 -0.5273
vn 0.5069 0.8206 0.2640
vn -0.1754 0.8660 0.4682
vn -0.5583 0.8234 -0.1011
vn -0.2378 0.8031 -0.5463
vn 0.5068 0.7975 -0.3273
usemtl mat1
s off
f 1/1/1 2/2/1 4/3/1
f 7/4/2 5/5/2 20/6/2
f 14/7/3 3/8/3 5/9/3 15/10/3
f 1/11/4 4/12/4 6/13/4
f 13/14/5 11/15/5 20/16/5
f 15/17/6 5/18/6 7/19/6 16/20/6
f 1/11/7 6/13/7 8/21/7
f 11/15/8 9/22/8 20/16/8
f 16/23/9 7/4/9 9/24/9 17/25/9
f 1/11/10 8/21/10 10/26/10
f 9/24/11 7/4/11 20/6/11
f 17/27/12 9/22/12 11/15/12 18/28/12
f 1/11/13 10/26/13 12/29/13
f 5/9/14 3/8/14 20/30/14
f 18/28/15 11/15/15 13/14/15 19/31/15
f 1/11/16 12/29/16 2/32/16
f 3/33/17 13/14/17 20/16/17
f 19/31/18 13/14/18 3/33/18 14/34/18
f 12/35/19 19/36/19 14/37/19 2/38/19
f 10/39/20 18/28/20 19/31/20 12/40/20
f 8/41/21 17/42/21 18/43/21 10/44/21
f 6/45/22 16/20/22 17/42/22 8/41/22
f 4/46/23 15/17/23 16/20/23 6/45/23
f 2/38/24 14/37/24 15/17/24 4/46/24
f 33/47/25 35/48/25 34/49/25
f 36/50/26 35/51/26 33/52/26
f 34/53/27 36/54/27 33/55/27
usemtl mat2
f 21/56/28 22/57/28 23/58/28
f 22/57/29 21/56/29 26/59/29
f 21/56/30 23/58/30 24/60/30
f 21/56/31 24/60/31 25/61/31
f 21/56/32 25/61/32 26/59/32
f 22/62/33 26/63/33 31/64/33
f 23/65/34 22/66/34 27/67/34
f 24/68/35 23/69/35 28/70/35
f 25/71/36 24/68/36 29/72/36
f 26/63/37 25/73/37 30/74/37
f 22/66/38 31/75/38 27/67/38
f 23/65/39 27/67/39 28/76/39
f 24/68/40 28/70/40 29/72/40
f 25/73/41 29/77/41 30/74/41
f 26/63/42 30/74/42 31/64/42
f 27/78/43 31/79/43 32/80/43
f 28/81/44 27/78/44 32/80/44
f 29/72/45 28/70/45 32/82/45
f 30/83/46 29/84/46 32/80/46
f 31/79/47 30/83/47 32/80/47
