# Blender v2.82 (sub 7) OBJ File: 'car.blend'
# www.blender.org
mtllib car.mtl
o car
v -1.000000 0.000000 -2.545264
v 1.000000 0.000000 -2.545264
v 1.000000 0.642463 -2.371466
v -1.000000 0.642463 -2.371466
v -1.000000 0.000000 2.130033
v 1.000000 0.000000 2.130033
v 1.000000 0.653013 1.972370
v -1.000000 0.653013 1.972370
v -1.000000 0.774926 1.263833
v -1.000000 0.774926 -1.197218
v 1.000000 0.774926 -1.197218
v 1.000000 0.774926 1.263833
v 0.711431 1.721077 -0.444102
v 1.000000 0.000000 -1.197218
v 0.711431 1.721077 0.667711
v 1.000000 0.000000 1.263833
v -0.711431 1.721077 -0.444102
v -1.000000 0.000000 -1.197218
v -0.711431 1.721077 0.667711
v -1.000000 0.000000 1.263833
v -1.027625 -0.015646 -1.646637
v -0.828818 -0.015646 -1.646637
v -1.102537 -0.432909 -1.977225
v -0.753907 -0.432909 -1.977225
v -1.102537 -0.510575 -1.450570
v -0.753907 -0.510575 -1.450570
v -1.102537 -0.093311 -1.119983
v -0.753907 -0.093311 -1.119982
v -1.102537 0.401618 -1.316050
v -0.753907 0.401618 -1.316050
v -1.102537 0.479283 -1.842705
v -0.753907 0.479283 -1.842704
v -1.102537 0.062020 -2.173292
v -0.753907 0.062020 -2.173292
v 0.810266 -0.015646 -1.646637
v 1.009073 -0.015646 -1.646637
v 0.735354 0.498841 -1.783389
v 1.083984 0.498841 -1.783389
v 0.735354 0.123167 -2.160571
v 1.083984 0.123167 -2.160571
v 0.735354 -0.391319 -2.023819
v 1.083984 -0.391319 -2.023820
v 0.735354 -0.530132 -1.509885
v 1.083984 -0.530132 -1.509886
v 0.735354 -0.154458 -1.132703
v 1.083984 -0.154458 -1.132703
v 0.735354 0.360028 -1.269455
v 1.083984 0.360028 -1.269455
v -1.027625 -0.015646 1.232868
v -0.828818 -0.015646 1.232868
v -1.102537 0.492958 1.390091
v -0.753907 0.492958 1.390091
v -1.102537 0.374816 0.871016
v -0.753907 0.374816 0.871016
v -1.102537 -0.133788 0.713793
v -0.753907 -0.133788 0.713793
v -1.102537 -0.524249 1.075645
v -0.753907 -0.524249 1.075645
v -1.102537 -0.406107 1.594720
v -0.753907 -0.406107 1.594720
v -1.102537 0.102497 1.751944
v -0.753907 0.102497 1.751944
v 0.810266 -0.015646 1.232868
v 1.009073 -0.015646 1.232868
v 0.735354 0.446589 0.968792
v 1.083984 0.446589 0.968792
v 0.735354 -0.013225 0.700523
v 1.083984 -0.013225 0.700523
v 0.735354 -0.475459 0.964599
v 1.083984 -0.475460 0.964599
v 0.735354 -0.477880 1.496944
v 1.083984 -0.477880 1.496944
v 0.735354 -0.018066 1.765213
v 1.083984 -0.018066 1.765213
v 0.735354 0.444168 1.501137
v 1.083984 0.444168 1.501137
vt 0.403214 0.461748
vt 0.509158 0.461748
vt 0.509158 0.648827
vt 0.421324 0.624708
vt 0.744871 0.187079
vt 0.638927 0.187079
vt 0.657037 0.024119
vt 0.744871 0.000000
vt 0.638927 0.528618
vt 0.744871 0.528618
vt 0.744871 0.648827
vt 0.655595 0.626947
vt 0.363207 0.926383
vt 0.273445 0.926383
vt 0.273445 0.648827
vt 0.363207 0.648827
vt 0.509158 0.120209
vt 0.403214 0.120209
vt 0.419881 0.021880
vt 0.509158 0.000000
vt 0.000000 0.461576
vt 0.273445 0.461576
vt 0.273445 0.648585
vt 0.000000 0.648585
vt 0.273445 0.120164
vt 0.000000 0.120164
vt 0.000000 0.000000
vt 0.273445 0.000000
vt 0.442015 0.926383
vt 0.363207 0.926383
vt 0.363207 0.648827
vt 0.442015 0.648827
vt 0.744871 0.555111
vt 0.744871 0.277556
vt 0.904669 0.277555
vt 0.904669 0.555111
vt 0.000000 0.846047
vt 0.000000 0.648585
vt 0.151913 0.648585
vt 0.151913 0.846047
vt 0.151913 0.926141
vt 0.151913 0.648585
vt 0.249319 0.648585
vt 0.249319 0.926141
vt 0.504938 0.870446
vt 0.568074 0.833522
vt 0.568074 0.907400
vt 0.504938 0.722722
vt 0.568074 0.685767
vt 0.568074 0.759646
vt 0.321110 0.926383
vt 0.368776 0.926383
vt 0.368776 0.999738
vt 0.321111 0.999738
vt 0.505045 0.944340
vt 0.505045 0.648827
vt 0.891749 0.829268
vt 0.844084 0.829268
vt 0.844084 0.760325
vt 0.891749 0.760325
vt 0.442015 0.907402
vt 0.442015 0.685765
vt 0.844084 0.702862
vt 0.891749 0.702862
vt 0.442015 0.833524
vt 0.442015 0.759644
vt 0.321110 0.999809
vt 0.273445 0.999809
vt 0.273445 0.926383
vt 0.321110 0.926383
vt 0.505045 0.796584
vt 0.505045 0.796584
vt 0.904669 0.400795
vt 0.952334 0.400795
vt 0.952334 0.472540
vt 0.904669 0.472540
vt 0.952334 0.523676
vt 0.904669 0.523676
vt 0.933856 0.906516
vt 0.870931 0.869607
vt 0.933960 0.832666
vt 0.063108 0.920001
vt 0.126063 0.882982
vt 0.126063 0.956858
vt 0.741804 0.922796
vt 0.694139 0.922796
vt 0.694139 0.853609
vt 0.741804 0.853609
vt 0.996990 0.869604
vt 0.063031 0.846047
vt 0.694139 0.796580
vt 0.741804 0.796580
vt 0.996990 0.943482
vt 0.000000 0.882989
vt 0.952334 0.277556
vt 1.000000 0.277555
vt 1.000000 0.349377
vt 0.952334 0.349378
vt 0.933960 0.980423
vt 0.000000 0.956865
vt 0.694137 0.648827
vt 0.741803 0.648827
vt 0.741803 0.714187
vt 0.694137 0.714187
vt 0.870931 0.943485
vt 0.063031 0.993800
vt 0.741803 0.776693
vt 0.694137 0.776693
vt 0.939415 0.702862
vt 0.987080 0.702862
vt 0.987080 0.774826
vt 0.939415 0.774826
vt 0.808006 0.906520
vt 0.870931 0.869607
vt 0.870931 0.943485
vt 0.631032 0.722784
vt 0.631106 0.796580
vt 0.568074 0.759638
vt 0.891749 0.754981
vt 0.939415 0.754981
vt 0.939415 0.826386
vt 0.891749 0.826386
vt 0.807901 0.980423
vt 0.694137 0.759645
vt 0.416442 0.999644
vt 0.368776 0.999644
vt 0.368776 0.926383
vt 0.416442 0.926383
vt 0.744871 0.943482
vt 0.694137 0.685769
vt 0.952334 0.400795
vt 0.904669 0.400795
vt 0.904669 0.349117
vt 0.952334 0.349117
vt 0.744871 0.869604
vt 0.631106 0.648827
vt 0.904669 0.277555
vt 0.952334 0.277556
vt 0.807901 0.832666
vt 0.568074 0.685762
vt 0.741804 0.996674
vt 0.694139 0.996674
vt 0.694139 0.922796
vt 0.741804 0.922796
vt 0.891749 0.702862
vt 0.939415 0.702862
vt 0.907061 0.629081
vt 0.844084 0.665921
vt 0.844084 0.592046
vt 0.631053 0.870550
vt 0.694139 0.907396
vt 0.631106 0.944330
vt 0.953010 0.238925
vt 0.905345 0.238925
vt 0.905345 0.165408
vt 0.953010 0.165408
vt 0.907116 0.555111
vt 0.694139 0.833520
vt 0.905345 0.122325
vt 0.953010 0.122325
vt 0.970148 0.592052
vt 0.631106 0.796580
vt 0.151913 0.926141
vt 0.199579 0.926141
vt 0.199579 1.000000
vt 0.151913 1.000000
vt 0.970148 0.665927
vt 0.568074 0.833514
vt 0.953010 0.122325
vt 0.905345 0.122325
vt 0.905345 0.050320
vt 0.953010 0.050320
vt 0.907116 0.702862
vt 0.568074 0.907389
vt 0.905345 0.000000
vt 0.953010 0.000000
vt 0.199579 0.926141
vt 0.247244 0.926141
vt 0.247244 0.999983
vt 0.199579 0.999983
vt 0.273445 0.357233
vt 0.273445 0.202938
vt 0.744871 0.555111
vt 0.844084 0.595158
vt 0.844084 0.792620
vt 0.744871 0.832666
vt 0.744871 0.000000
vt 0.905345 0.040047
vt 0.905345 0.237509
vt 0.509158 0.445889
vt 0.509158 0.291595
vn 1.0000 0.0000 0.0000
vn -1.0000 0.0000 0.0000
vn 0.0000 0.2611 -0.9653
vn 0.0000 -1.0000 0.0000
vn 0.0000 0.2347 0.9721
vn 0.0000 0.9937 -0.1121
vn 0.0000 1.0000 0.0000
vn 0.0000 0.9855 0.1696
vn -0.9871 0.1587 0.0234
vn 0.9871 0.1587 0.0234
vn -0.0000 -0.9893 -0.1459
vn -0.9871 0.0996 -0.1257
vn 0.9871 0.0996 -0.1257
vn -0.0000 -0.6210 0.7838
vn -0.9871 -0.0591 -0.1491
vn 0.9871 -0.0591 -0.1491
vn -0.0000 0.3683 0.9297
vn -0.9871 -0.1587 -0.0234
vn 0.9871 -0.1587 -0.0234
vn 0.0000 0.9893 0.1459
vn -0.9871 -0.0996 0.1257
vn 0.9871 -0.0996 0.1257
vn 0.0000 0.6210 -0.7838
vn -0.9871 0.0591 0.1491
vn 0.9871 0.0591 0.1491
vn 0.0000 -0.3683 -0.9297
vn -0.9871 -0.1136 0.1132
vn 0.9871 -0.1136 0.1132
vn 0.0000 0.7085 -0.7057
vn -0.9871 0.0412 0.1550
vn 0.9871 0.0412 0.1550
vn -0.0000 -0.2569 -0.9664
vn -0.9871 0.1548 0.0418
vn 0.9871 0.1548 0.0418
vn -0.0000 -0.9654 -0.2608
vn -0.9871 0.1136 -0.1132
vn 0.9871 0.1136 -0.1132
vn 0.0000 -0.7085 0.7057
vn -0.9871 -0.0412 -0.1550
vn 0.9871 -0.0412 -0.1550
vn -0.0000 0.2569 0.9664
vn -0.9871 -0.1548 -0.0418
vn 0.9871 -0.1548 -0.0418
vn 0.0000 0.9654 0.2608
vn -0.9871 -0.1564 0.0356
vn 0.9871 -0.1564 0.0356
vn -0.0000 0.9751 -0.2219
vn -0.9871 -0.0474 0.1532
vn 0.9871 -0.0474 0.1532
vn -0.0000 0.2953 -0.9554
vn -0.9871 0.1090 0.1176
vn 0.9871 0.1090 0.1176
vn -0.0000 -0.6797 -0.7335
vn -0.9871 0.1564 -0.0356
vn 0.9871 0.1564 -0.0356
vn 0.0000 -0.9751 0.2219
vn -0.9871 0.0474 -0.1532
vn 0.9871 0.0474 -0.1532
vn 0.0000 -0.2953 0.9554
vn -0.9871 -0.1090 -0.1176
vn 0.9871 -0.1090 -0.1176
vn 0.0000 0.6797 0.7335
vn -0.9871 -0.0808 0.1385
vn 0.9871 -0.0808 0.1385
vn -0.0000 0.5039 -0.8637
vn -0.9871 0.0796 0.1393
vn 0.9871 0.0796 0.1393
vn -0.0000 -0.4961 -0.8683
vn -0.9871 0.1604 0.0007
vn 0.9871 0.1604 0.0007
vn -0.0000 -1.0000 -0.0045
vn -0.9871 0.0808 -0.1385
vn 0.9871 0.0808 -0.1385
vn 0.0000 -0.5039 0.8637
vn -0.9871 -0.0796 -0.1393
vn 0.9871 -0.0796 -0.1393
vn 0.0000 0.4961 0.8683
vn -0.9871 -0.1604 -0.0007
vn 0.9871 -0.1604 -0.0007
vn 0.0000 1.0000 0.0045
vn 0.9565 0.2917 0.0000
vn 0.0000 0.5331 0.8461
vn 0.0000 0.6228 -0.7824
vn -0.9565 0.2917 0.0000
usemtl mat1
s off
f 11/1/1 14/2/1 2/3/1 3/4/1
f 18/5/2 10/6/2 4/7/2 1/8/2
f 9/9/2 20/10/2 5/11/2 8/12/2
f 1/13/3 4/14/3 3/15/3 2/16/3
f 16/17/1 12/18/1 7/19/1 6/20/1
f 14/21/4 18/22/4 1/23/4 2/24/4
f 20/25/4 16/26/4 6/27/4 5/28/4
f 18/22/4 14/21/4 16/26/4 20/25/4
f 14/2/1 11/1/1 12/18/1 16/17/1
f 6/29/5 7/30/5 8/31/5 5/32/5
f 10/33/6 11/34/6 3/35/6 4/36/6
f 13/37/7 17/38/7 19/39/7 15/40/7
f 20/10/2 9/9/2 10/6/2 18/5/2
f 12/41/8 9/42/8 8/43/8 7/44/8
usemtl mat2
f 21/45/9 23/46/9 25/47/9
f 22/48/10 26/49/10 24/50/10
f 23/51/11 24/52/11 26/53/11 25/54/11
f 21/45/12 25/47/12 27/55/12
f 22/48/13 28/56/13 26/49/13
f 25/57/14 26/58/14 28/59/14 27/60/14
f 21/45/15 27/55/15 29/61/15
f 22/48/16 30/62/16 28/56/16
f 27/60/17 28/59/17 30/63/17 29/64/17
f 21/45/18 29/61/18 31/65/18
f 22/48/19 32/66/19 30/62/19
f 29/67/20 30/68/20 32/69/20 31/70/20
f 21/45/21 31/65/21 33/71/21
f 22/48/22 34/72/22 32/66/22
f 31/73/23 32/74/23 34/75/23 33/76/23
f 21/45/24 33/71/24 23/46/24
f 22/48/25 24/50/25 34/72/25
f 33/76/26 34/75/26 24/77/26 23/78/26
f 35/79/27 37/80/27 39/81/27
f 36/82/28 40/83/28 38/84/28
f 37/85/29 38/86/29 40/87/29 39/88/29
f 35/79/30 39/81/30 41/89/30
f 36/82/31 42/90/31 40/83/31
f 39/88/32 40/87/32 42/91/32 41/92/32
f 35/79/33 41/89/33 43/93/33
f 36/82/34 44/94/34 42/90/34
f 41/95/35 42/96/35 44/97/35 43/98/35
f 35/79/36 43/93/36 45/99/36
f 36/82/37 46/100/37 44/94/37
f 43/101/38 44/102/38 46/103/38 45/104/38
f 35/79/39 45/99/39 47/105/39
f 36/82/40 48/106/40 46/100/40
f 45/104/41 46/103/41 48/107/41 47/108/41
f 35/79/42 47/105/42 37/80/42
f 36/82/43 38/84/43 48/106/43
f 47/109/44 48/110/44 38/111/44 37/112/44
f 49/113/45 51/114/45 53/115/45
f 50/116/46 54/117/46 52/118/46
f 51/119/47 52/120/47 54/121/47 53/122/47
f 49/113/48 53/115/48 55/123/48
f 50/116/49 56/124/49 54/117/49
f 53/125/50 54/126/50 56/127/50 55/128/50
f 49/113/51 55/123/51 57/129/51
f 50/116/52 58/130/52 56/124/52
f 55/131/53 56/132/53 58/133/53 57/134/53
f 49/113/54 57/129/54 59/135/54
f 50/116/55 60/136/55 58/130/55
f 57/134/56 58/133/56 60/137/56 59/138/56
f 49/113/57 59/135/57 61/139/57
f 50/116/58 62/140/58 60/136/58
f 59/141/59 60/142/59 62/143/59 61/144/59
f 49/113/60 61/139/60 51/114/60
f 50/116/61 52/118/61 62/140/61
f 61/145/62 62/146/62 52/120/62 51/119/62
f 63/147/63 65/148/63 67/149/63
f 64/150/64 68/151/64 66/152/64
f 65/153/65 66/154/65 68/155/65 67/156/65
f 63/147/66 67/149/66 69/157/66
f 64/150/67 70/158/67 68/151/67
f 67/156/68 68/155/68 70/159/68 69/160/68
f 63/147/69 69/157/69 71/161/69
f 64/150/70 72/162/70 70/158/70
f 69/163/71 70/164/71 72/165/71 71/166/71
f 63/147/72 71/161/72 73/167/72
f 64/150/73 74/168/73 72/162/73
f 71/169/74 72/170/74 74/171/74 73/172/74
f 63/147/75 73/167/75 75/173/75
f 64/150/76 76/174/76 74/168/76
f 73/172/77 74/171/77 76/175/77 75/176/77
f 63/147/78 75/173/78 65/148/78
f 64/150/79 66/152/79 76/174/79
f 75/177/80 76/178/80 66/179/80 65/180/80
usemtl mat3
f 11/1/81 13/181/81 15/182/81 12/18/81
f 12/183/82 15/184/82 19/185/82 9/186/82
f 10/187/83 17/188/83 13/189/83 11/34/83
f 9/9/84 19/190/84 17/191/84 10/6/84
