# Blender v2.82 (sub 7) OBJ File: 'tile_empty.blend'
# www.blender.org
mtllib tile_empty.mtl
o tile_empty
v 20.000000 0.000000 -20.000000
v 20.000000 -40.000000 -20.000000
v 20.000000 0.000000 20.000000
v 20.000000 -40.000000 20.000000
v -20.000000 0.000000 -20.000000
v -20.000000 -40.000000 -20.000000
v -20.000000 0.000000 20.000000
v -20.000000 -40.000000 20.000000
v -18.000000 -40.000000 18.000000
v -18.000000 0.000000 18.000000
v -18.000000 -40.000000 -18.000000
v -18.000000 0.000000 -18.000000
v 18.000000 -40.000000 18.000000
v 18.000000 0.000000 18.000000
v 18.000000 -40.000000 -18.000000
v 18.000000 0.000000 -18.000000
vt 0.000000 0.000000
vt 1.000000 0.000000
vt 1.000000 1.000000
vt 0.000000 1.000000
vt 0.000000 0.000000
vt 1.000000 0.000000
vt 1.000000 1.000000
vt 0.000000 1.000000
vt 0.000000 0.000000
vt 1.000000 0.000000
vt 1.000000 1.000000
vt 0.000000 1.000000
vt 0.000000 0.000000
vt 1.000000 1.000000
vt 0.000000 1.000000
vt 0.000000 0.000000
vt 1.000000 1.000000
vt 0.000000 1.000000
vt 0.000000 0.000000
vt 1.000000 0.000000
vt 1.000000 1.000000
vt 0.000000 1.000000
vt 0.000000 0.000000
vt 1.000000 0.000000
vt 1.000000 1.000000
vt 0.000000 1.000000
vt 0.000000 0.000000
vt 1.000000 0.000000
vt 0.000000 0.000000
vt 1.000000 0.000000
vt 1.000000 1.000000
vt 0.000000 1.000000
vt 0.000000 0.000000
vt 1.000000 0.000000
vt 0.000000 0.000000
vt 0.000000 0.000000
vt 1.000000 0.000000
vt 1.000000 1.000000
vt 0.000000 1.000000
vt 1.000000 0.000000
vt 1.000000 1.000000
vt 0.000000 1.000000
vt 1.000000 0.000000
vt 1.000000 1.000000
vt 0.000000 1.000000
vt 1.000000 0.000000
vt 1.000000 1.000000
vt 0.000000 1.000000
vn 0.0000 0.0000 -1.0000
vn 1.0000 0.0000 0.0000
vn 0.0000 1.0000 0.0000
vn -1.0000 0.0000 0.0000
vn 0.0000 0.0000 1.0000
vn 0.0000 -1.0000 0.0000
usemtl mat1
s off
f 6/1/1 5/2/1 1/3/1 2/4/1
f 2/5/2 1/6/2 3/7/2 4/8/2
f 5/9/3 7/10/3 10/11/3 12/12/3
f 8/13/4 7/10/4 5/14/4 6/15/4
f 3/16/3 1/6/3 16/17/3 14/18/3
f 4/19/5 3/20/5 7/21/5 8/22/5
f 9/23/2 11/24/2 12/25/2 10/26/2
f 11/27/5 15/28/5 16/17/5 12/12/5
f 15/29/4 13/30/4 14/31/4 16/32/4
f 13/33/1 9/34/1 10/11/1 14/18/1
f 1/35/3 5/2/3 12/25/3 16/32/3
f 7/36/3 3/20/3 14/31/3 10/26/3
f 6/1/6 2/37/6 15/38/6 11/39/6
f 4/19/6 8/40/6 9/41/6 13/42/6
f 8/13/6 6/43/6 11/44/6 9/45/6
f 2/5/6 4/46/6 13/47/6 15/48/6
