# Blender v2.82 (sub 7) OBJ File: 'tile_empty.blend'
# www.blender.org
mtllib tile_empty.mtl
o tile_empty
v 20.000000 0.000000 -20.000000
v 20.000000 -40.000000 -20.000000
v 20.000000 0.000000 20.000000
v 20.000000 -40.000000 20.000000
v -20.000000 0.000000 -20.000000
v -20.000000 -40.000000 -20.000000
v -20.000000 0.000000 20.000000
v -20.000000 -40.000000 20.000000
v -18.000000 -40.000000 18.000000
v -18.000000 0.000000 18.000000
v -18.000000 -40.000000 -18.000000
v -18.000000 0.000000 -18.000000
v 18.000000 -40.000000 18.000000
v 18.000000 0.000000 18.000000
v 18.000000 -40.000000 -18.000000
v 18.000000 0.000000 -18.000000
vt 0.263158 0.666667
vt 0.000000 0.666667
vt 0.000000 0.333333
vt 0.263158 0.333333
vt 0.000000 0.000000
vt 0.263158 0.000000
vt 0.000000 1.000000
vt 0.000000 0.666667
vt 0.013158 0.683333
vt 0.013158 0.983333
vt 0.526316 0.333333
vt 0.263158 0.333333
vt 0.263158 0.000000
vt 0.526316 0.000000
vt 0.263158 0.666667
vt 0.263158 1.000000
vt 0.250000 0.983333
vt 0.250000 0.683333
vt 0.263158 0.666667
vt 0.263158 0.333333
vt 0.526316 0.333333
vt 0.526316 0.666667
vt 0.763158 0.666667
vt 0.526316 0.666667
vt 0.526316 0.333333
vt 0.763158 0.333333
vt 1.000000 0.666667
vt 0.763158 0.666667
vt 0.763158 0.333333
vt 1.000000 0.333333
vt 0.500000 1.000000
vt 0.263158 1.000000
vt 0.263158 0.666667
vt 0.500000 0.666667
vt 0.763158 1.000000
vt 0.526316 1.000000
vt 0.526316 0.666667
vt 0.763158 0.666667
vt 0.789474 0.000000
vt 0.776316 0.016667
vt 0.539474 0.016667
vt 0.789474 0.333333
vt 0.539474 0.316667
vt 0.776316 0.316667
vn 0.0000 0.0000 -1.0000
vn 1.0000 0.0000 0.0000
vn 0.0000 1.0000 0.0000
vn -1.0000 0.0000 0.0000
vn 0.0000 0.0000 1.0000
vn 0.0000 -1.0000 0.0000
usemtl mat1
s off
f 6/1/1 5/2/1 1/3/1 2/4/1
f 2/4/2 1/3/2 3/5/2 4/6/2
f 5/7/3 7/8/3 10/9/3 12/10/3
f 8/11/4 7/12/4 5/13/4 6/14/4
f 3/15/3 1/16/3 16/17/3 14/18/3
f 4/19/5 3/20/5 7/21/5 8/22/5
f 9/23/2 11/24/2 12/25/2 10/26/2
f 11/27/5 15/28/5 16/29/5 12/30/5
f 15/31/4 13/32/4 14/33/4 16/34/4
f 13/35/1 9/36/1 10/37/1 14/38/1
f 1/16/3 5/7/3 12/10/3 16/17/3
f 7/8/3 3/15/3 14/18/3 10/9/3
f 6/14/6 2/39/6 15/40/6 11/41/6
f 4/42/6 8/11/6 9/43/6 13/44/6
f 8/11/6 6/14/6 11/41/6 9/43/6
f 2/39/6 4/42/6 13/44/6 15/40/6
