# Blender v2.82 (sub 7) OBJ File: 'house.blend'
# www.blender.org
mtllib house.mtl
o house
v 0.413744 1.427769 -0.859338
v 0.413744 1.427769 0.856481
v 0.396688 0.992281 0.856481
v 0.396688 0.992281 -0.859338
v 0.396688 0.735805 0.856481
v 0.396688 0.735805 -0.859338
v 0.124234 0.992281 0.856481
v 0.124234 0.992281 -0.859338
v 0.124234 0.735805 0.856481
v 0.124234 0.735805 -0.859338
v -1.394267 0.706926 -0.859338
v -1.394267 0.706926 0.856481
v -1.374330 0.972422 -0.859338
v -1.374330 0.972422 0.856481
v -1.101876 0.715946 -0.859338
v -1.101876 0.715946 0.856481
v -1.101876 0.972422 -0.859338
v -1.101876 0.972422 0.856481
v -1.091907 1.414398 0.856481
v -1.091907 1.414398 -0.859338
v -1.091907 1.157922 0.856481
v -1.091907 1.157922 -0.859338
v -1.364361 1.414398 0.856481
v -1.364361 1.414398 -0.859338
v -1.364361 1.157922 0.856481
v -1.364361 1.157922 -0.859338
v -1.369346 1.563819 -0.859337
v -1.369346 1.563819 0.856481
v -1.369346 1.820295 -0.859337
v -1.369346 1.820295 0.856481
v -1.096891 1.563819 -0.859337
v -1.096891 1.563819 0.856481
v -1.096891 1.820295 -0.859337
v -1.096891 1.820295 0.856481
v 1.512928 2.000000 -0.817202
v 1.512928 0.000000 -0.817202
v 1.512928 2.000000 0.817202
v 1.512928 0.000000 0.817202
v -1.512928 2.000000 -0.817202
v -1.512928 0.000000 -0.817202
v -1.512928 2.000000 0.817202
v -1.512928 0.000000 0.817202
v 0.399211 1.171630 0.856481
v 0.399211 1.171630 -0.859338
v 0.141648 1.440409 0.856481
v 0.141648 1.440409 -0.859338
v 0.127116 1.184270 0.856481
v 0.127116 1.184270 -0.859338
v 0.129218 1.583678 -0.859337
v 0.129218 1.583678 0.856481
v 0.129218 1.840154 -0.859337
v 0.129218 1.840155 0.856481
v 0.401673 1.583678 -0.859337
v 0.401673 1.583678 0.856481
v 0.401673 1.840154 -0.859337
v 0.401673 1.840155 0.856481
v -0.158064 1.418908 -1.069487
v -0.158064 1.418908 1.066630
v -0.168032 0.976932 1.066630
v -0.168032 0.976932 -1.069487
v -0.168032 0.720456 1.066630
v -0.168032 0.720456 -1.069487
v -0.920763 0.976932 1.066630
v -0.920763 0.976932 -1.069487
v -0.920763 0.720456 1.066630
v -0.920763 0.720456 -1.069487
v -0.158064 1.162432 1.066630
v -0.158064 1.162432 -1.069487
v -0.910794 1.418908 1.066630
v -0.910794 1.418908 -1.069487
v -0.910794 1.162432 1.066630
v -0.910794 1.162432 -1.069487
v -0.860952 1.568329 -1.069487
v -0.860952 1.568329 1.066630
v -0.860952 1.824805 -1.069487
v -0.860952 1.824805 1.066630
v -0.108222 1.568329 -1.069487
v -0.108222 1.568329 1.066630
v -0.108222 1.824805 -1.069487
v -0.108222 1.824805 1.066630
v 1.345484 1.434258 -1.069487
v 1.345484 1.434258 1.066630
v 1.335515 0.992281 1.066630
v 1.335515 0.992281 -1.069487
v 1.335515 0.735805 1.066630
v 1.335515 0.735805 -1.069487
v 0.582785 0.992281 1.066630
v 0.582785 0.992281 -1.069487
v 0.582785 0.735805 1.066630
v 0.582785 0.735805 -1.069487
v 1.345484 1.177781 1.066630
v 1.345484 1.177781 -1.069487
v 0.592754 1.434258 1.066630
v 0.592754 1.434258 -1.069487
v 0.592754 1.177781 1.066630
v 0.592754 1.177781 -1.069487
v 0.587769 1.583678 -1.069487
v 0.587769 1.583678 1.066630
v 0.587769 1.840154 -1.069487
v 0.587769 1.840155 1.066630
v 1.340500 1.583678 -1.069487
v 1.340500 1.583678 1.066630
v 1.340500 1.840154 -1.069487
v 1.340500 1.840155 1.066630
v -0.812081 2.247083 -0.657526
v -0.812081 1.957628 -0.657526
v -0.812081 2.247083 0.614169
v -0.812081 1.957628 0.614169
v -1.139008 2.247083 -0.657526
v -1.139008 1.957628 -0.657526
v -1.139008 2.247083 0.614169
v -1.139008 1.957628 0.614169
v 0.721691 2.297973 -0.657526
v 0.721691 1.971775 -0.657526
v 0.721691 2.297973 0.614169
v 0.721691 1.971775 0.614169
v 0.394765 2.297973 -0.657526
v 0.394765 1.971775 -0.657526
v 0.394765 2.297973 0.614169
v 0.394765 1.971775 0.614169
v -0.042485 2.247083 -0.657526
v -0.042485 1.957628 -0.657526
v -0.042485 2.247083 0.614169
v -0.042485 1.957628 0.614169
v -0.369412 2.247083 -0.657526
v -0.369412 1.957628 -0.657526
v -0.369412 2.247083 0.614169
v -0.369412 1.957628 0.614169
v 1.241783 0.492201 0.873175
v 1.241783 0.625814 0.723678
v 1.241783 0.023882 0.873175
v 1.241783 0.023882 0.723678
v 0.914856 0.492201 0.873175
v 0.914856 0.625814 0.723678
v 0.914856 0.023882 0.873175
v 0.914856 0.023882 0.723678
v 1.241783 0.625814 0.873175
v 0.914856 0.625814 0.873175
v 1.241783 0.492201 1.263074
v 0.914856 0.492201 1.263074
vt 0.000000 0.000000
vt 1.000000 0.000000
vt 1.000000 1.000000
vt 0.000000 1.000000
vt 0.000000 0.000000
vt 1.000000 0.000000
vt 1.000000 1.000000
vt 0.000000 0.000000
vt 1.000000 0.000000
vt 1.000000 1.000000
vt 0.000000 1.000000
vt 0.000000 0.000000
vt 1.000000 0.000000
vt 1.000000 1.000000
vt 0.000000 1.000000
vt 0.000000 0.000000
vt 1.000000 0.000000
vt 0.000000 1.000000
vt 1.000000 1.000000
vt 0.000000 1.000000
vt 0.000000 0.000000
vt 1.000000 0.000000
vt 1.000000 1.000000
vt 0.000000 1.000000
vt 0.000000 0.000000
vt 1.000000 0.000000
vt 1.000000 1.000000
vt 0.000000 1.000000
vt 0.000000 0.000000
vt 1.000000 0.000000
vt 1.000000 1.000000
vt 0.000000 1.000000
vt 0.000000 0.000000
vt 1.000000 0.000000
vt 1.000000 1.000000
vt 0.000000 1.000000
vt 0.000000 0.000000
vt 1.000000 0.000000
vt 1.000000 1.000000
vt 0.000000 1.000000
vt 0.000000 0.000000
vt 1.000000 0.000000
vt 1.000000 1.000000
vt 0.000000 1.000000
vt 0.000000 0.000000
vt 1.000000 0.000000
vt 1.000000 1.000000
vt 0.000000 1.000000
vt 0.000000 0.000000
vt 1.000000 0.000000
vt 1.000000 1.000000
vt 0.000000 1.000000
vt 0.000000 0.000000
vt 1.000000 1.000000
vt 0.000000 1.000000
vt 0.000000 0.000000
vt 1.000000 0.000000
vt 1.000000 1.000000
vt 0.000000 1.000000
vt 0.000000 0.000000
vt 1.000000 0.000000
vt 1.000000 1.000000
vt 0.000000 1.000000
vt 0.000000 0.000000
vt 1.000000 0.000000
vt 1.000000 1.000000
vt 0.000000 1.000000
vt 0.000000 0.000000
vt 1.000000 0.000000
vt 1.000000 1.000000
vt 0.000000 1.000000
vt 0.000000 0.000000
vt 1.000000 0.000000
vt 0.000000 1.000000
vt 0.000000 0.000000
vt 1.000000 0.000000
vt 1.000000 1.000000
vt 0.000000 1.000000
vt 0.000000 0.000000
vt 1.000000 0.000000
vt 1.000000 1.000000
vt 0.000000 1.000000
vt 0.000000 0.000000
vt 1.000000 1.000000
vt 0.000000 1.000000
vt 0.000000 0.000000
vt 1.000000 1.000000
vt 0.000000 1.000000
vt 0.000000 0.000000
vt 1.000000 0.000000
vt 1.000000 1.000000
vt 0.000000 1.000000
vt 0.000000 0.000000
vt 1.000000 0.000000
vt 1.000000 1.000000
vt 0.000000 0.000000
vt 1.000000 0.000000
vt 1.000000 1.000000
vt 0.000000 1.000000
vt 0.000000 0.000000
vt 1.000000 0.000000
vt 0.000000 1.000000
vt 0.000000 0.000000
vt 1.000000 0.000000
vt 1.000000 1.000000
vt 0.000000 1.000000
vt 0.000000 0.000000
vt 1.000000 0.000000
vt 0.000000 1.000000
vt 0.000000 0.000000
vt 1.000000 0.000000
vt 1.000000 1.000000
vt 0.000000 1.000000
vt 0.000000 0.000000
vt 1.000000 0.000000
vt 0.000000 1.000000
vt 0.000000 0.000000
vt 1.000000 0.000000
vt 0.000000 1.000000
vt 1.000000 0.000000
vt 1.000000 1.000000
vt 0.000000 1.000000
vt 0.000000 0.000000
vt 1.000000 0.000000
vt 1.000000 1.000000
vt 0.000000 0.000000
vt 0.000000 1.000000
vt 0.000000 0.000000
vt 1.000000 0.000000
vt 1.000000 1.000000
vt 0.000000 1.000000
vt 1.000000 0.000000
vt 1.000000 1.000000
vt 1.000000 0.000000
vt 1.000000 1.000000
vt 0.000000 1.000000
vt 0.000000 0.000000
vt 1.000000 0.000000
vt 1.000000 1.000000
vt 0.000000 1.000000
vt 0.000000 0.000000
vt 1.000000 0.000000
vt 1.000000 1.000000
vt 1.000000 0.000000
vt 1.000000 1.000000
vt 0.000000 0.000000
vt 1.000000 0.000000
vt 1.000000 1.000000
vt 0.000000 1.000000
vt 0.000000 0.000000
vt 0.000000 1.000000
vt 0.000000 0.000000
vt 1.000000 0.000000
vt 1.000000 1.000000
vt 0.000000 1.000000
vt 0.000000 0.000000
vt 1.000000 0.000000
vt 1.000000 1.000000
vt 0.000000 1.000000
vt 1.000000 1.000000
vt 0.000000 1.000000
vt 1.000000 0.000000
vt 1.000000 1.000000
vt 0.000000 0.000000
vt 1.000000 0.000000
vt 1.000000 1.000000
vt 0.000000 1.000000
vt 0.000000 0.000000
vt 1.000000 1.000000
vt 0.000000 1.000000
vt 0.000000 0.000000
vt 1.000000 0.000000
vt 1.000000 1.000000
vt 0.000000 1.000000
vt 0.000000 0.000000
vt 1.000000 0.000000
vt 1.000000 1.000000
vt 0.000000 0.000000
vt 1.000000 0.000000
vt 1.000000 1.000000
vt 0.000000 1.000000
vt 0.000000 0.000000
vt 1.000000 0.000000
vt 0.000000 1.000000
vt 1.000000 0.000000
vt 1.000000 1.000000
vt 0.000000 1.000000
vt 0.000000 0.000000
vt 1.000000 0.000000
vt 1.000000 1.000000
vt 1.000000 0.000000
vt 1.000000 1.000000
vt 0.000000 0.000000
vt 1.000000 0.000000
vt 1.000000 1.000000
vt 0.000000 1.000000
vt 0.000000 0.000000
vt 0.000000 1.000000
vt 1.000000 1.000000
vt 0.000000 1.000000
vt 0.000000 0.000000
vt 1.000000 0.000000
vt 1.000000 1.000000
vt 0.000000 1.000000
vt 0.000000 0.000000
vt 1.000000 0.000000
vt 1.000000 1.000000
vt 0.000000 1.000000
vt 0.000000 0.000000
vt 1.000000 0.000000
vt 1.000000 1.000000
vt 0.000000 1.000000
vt 0.000000 0.000000
vt 1.000000 0.000000
vt 1.000000 1.000000
vt 0.000000 1.000000
vt 0.000000 0.000000
vt 1.000000 0.000000
vt 1.000000 1.000000
vt 0.000000 1.000000
vt 0.000000 0.000000
vt 1.000000 0.000000
vt 0.000000 1.000000
vt 0.000000 0.000000
vt 1.000000 0.000000
vt 1.000000 1.000000
vt 0.000000 1.000000
vt 0.000000 0.000000
vt 1.000000 1.000000
vt 0.000000 1.000000
vt 0.000000 0.000000
vt 1.000000 0.000000
vt 1.000000 1.000000
vt 0.000000 1.000000
vt 0.000000 0.000000
vt 1.000000 0.000000
vt 1.000000 1.000000
vt 0.000000 0.000000
vt 1.000000 0.000000
vt 1.000000 1.000000
vt 0.000000 1.000000
vt 0.000000 0.000000
vt 1.000000 0.000000
vt 0.000000 1.000000
vt 1.000000 0.000000
vt 1.000000 1.000000
vt 0.000000 1.000000
vt 0.000000 0.000000
vt 1.000000 0.000000
vt 1.000000 1.000000
vt 1.000000 0.000000
vt 1.000000 1.000000
vt 0.000000 0.000000
vt 1.000000 0.000000
vt 1.000000 1.000000
vt 0.000000 1.000000
vt 0.000000 0.000000
vt 0.000000 1.000000
vt 1.000000 1.000000
vt 0.000000 1.000000
vt 0.000000 0.000000
vt 1.000000 0.000000
vt 1.000000 1.000000
vt 0.000000 1.000000
vt 0.000000 0.000000
vt 1.000000 0.000000
vt 1.000000 1.000000
vt 0.000000 1.000000
vt 0.000000 0.000000
vt 1.000000 0.000000
vt 1.000000 1.000000
vt 0.000000 1.000000
vt 0.000000 0.000000
vt 1.000000 0.000000
vt 1.000000 1.000000
vt 0.000000 1.000000
vt 0.000000 0.000000
vt 1.000000 0.000000
vt 0.000000 1.000000
vt 0.000000 0.000000
vt 1.000000 1.000000
vt 0.000000 1.000000
vt 0.000000 0.000000
vt 1.000000 0.000000
vt 1.000000 1.000000
vt 0.000000 1.000000
vt 0.000000 0.000000
vt 1.000000 0.000000
vt 1.000000 1.000000
vt 0.000000 1.000000
vt 0.000000 0.000000
vt 1.000000 0.000000
vt 0.000000 1.000000
vt 0.000000 0.000000
vt 1.000000 1.000000
vt 0.000000 1.000000
vt 0.000000 0.000000
vt 1.000000 0.000000
vt 1.000000 1.000000
vt 0.000000 1.000000
vt 0.000000 0.000000
vt 1.000000 0.000000
vt 1.000000 1.000000
vt 0.000000 1.000000
vt 0.000000 0.000000
vt 1.000000 0.000000
vt 1.000000 1.000000
vt 0.000000 1.000000
vt 0.000000 0.000000
vt 1.000000 0.000000
vt 0.000000 1.000000
vt 0.000000 0.000000
vt 1.000000 1.000000
vt 0.000000 1.000000
vt 0.000000 0.000000
vt 1.000000 0.000000
vt 1.000000 1.000000
vt 0.000000 1.000000
vt 0.000000 0.000000
vt 1.000000 0.000000
vt 1.000000 1.000000
vt 0.000000 1.000000
vt 0.000000 0.000000
vt 1.000000 0.000000
vt 1.000000 1.000000
vt 0.000000 1.000000
vt 0.000000 0.000000
vt 1.000000 0.000000
vt 0.000000 1.000000
vt 1.000000 0.000000
vt 1.000000 1.000000
vt 0.000000 0.000000
vt 1.000000 0.000000
vt 0.000000 1.000000
vt 1.000000 1.000000
vt 0.000000 0.000000
vt 1.000000 1.000000
vt 0.000000 0.000000
vt 1.000000 0.000000
vt 0.000000 1.000000
vt 1.000000 0.000000
vt 1.000000 1.000000
vt 0.000000 0.000000
vt 0.000000 1.000000
vn 0.0000 -1.0000 0.0000
vn 0.0000 0.0000 1.0000
vn 1.0000 0.0000 0.0000
vn -1.0000 0.0000 0.0000
vn 0.0000 1.0000 0.0000
vn 0.0000 0.0000 -1.0000
vn -0.9972 0.0749 0.0000
vn -0.9984 0.0566 0.0000
vn -0.0464 -0.9989 0.0000
vn 0.0464 0.9989 -0.0000
vn 0.0308 -0.9995 0.0000
vn 0.9984 -0.0566 -0.0000
vn 0.0000 0.9460 0.3242
usemtl mat1
s off
f 40/1/1 36/2/1 38/3/1 42/4/1
f 38/5/2 37/6/2 41/7/2 42/4/2
f 36/8/3 35/9/3 37/10/3 38/11/3
f 42/12/4 41/13/4 39/14/4 40/15/4
f 35/16/5 39/17/5 41/7/5 37/18/5
f 40/1/6 39/17/6 35/19/6 36/20/6
usemtl mat2
f 66/21/4 65/22/4 63/23/4 64/24/4
f 4/25/3 3/26/3 5/27/3 6/28/3
f 11/29/7 12/30/7 14/31/7 13/32/7
f 68/33/1 67/34/1 71/35/1 72/36/1
f 8/37/6 4/38/6 6/39/6 10/40/6
f 18/41/2 14/42/2 12/43/2 16/44/2
f 72/45/4 71/46/4 69/47/4 70/48/4
f 48/49/8 47/50/8 45/51/8 46/52/8
f 13/53/5 14/42/5 18/54/5 17/55/5
f 64/56/6 60/57/6 62/58/6 66/59/6
f 2/60/2 45/61/2 47/62/2 43/63/2
f 10/64/4 9/65/4 7/66/4 8/67/4
f 60/68/3 59/69/3 61/70/3 62/71/3
f 44/72/9 43/73/9 47/62/9 48/74/9
f 29/75/5 30/76/5 34/77/5 33/78/5
f 51/79/6 55/80/6 53/81/6 49/82/6
f 46/83/10 45/61/10 2/84/10 1/85/10
f 34/86/2 30/76/2 28/87/2 32/88/2
f 55/89/3 56/90/3 54/91/3 53/92/3
f 6/93/1 5/94/1 9/95/1 10/40/1
f 20/96/3 19/97/3 21/98/3 22/99/3
f 58/100/2 69/101/2 71/35/2 67/102/2
f 49/103/4 50/104/4 52/105/4 51/106/4
f 31/107/1 32/108/1 28/87/1 27/109/1
f 24/110/6 20/111/6 22/112/6 26/113/6
f 3/114/2 7/115/2 9/95/2 5/116/2
f 15/117/11 16/118/11 12/43/11 11/119/11
f 24/110/5 23/120/5 19/121/5 20/122/5
f 22/123/1 21/124/1 25/125/1 26/113/1
f 19/126/2 23/120/2 25/125/2 21/127/2
f 26/128/4 25/129/4 23/130/4 24/131/4
f 13/53/6 17/132/6 15/133/6 11/119/6
f 51/79/5 52/134/5 56/135/5 55/136/5
f 17/137/3 18/138/3 16/139/3 15/140/3
f 53/141/1 54/142/1 50/143/1 49/82/1
f 46/83/6 1/144/6 44/145/6 48/74/6
f 1/146/12 2/147/12 43/148/12 44/149/12
f 56/150/2 52/134/2 50/143/2 54/151/2
f 27/152/4 28/153/4 30/154/4 29/155/4
f 33/156/3 34/157/3 32/158/3 31/159/3
f 8/37/5 7/115/5 3/160/5 4/161/5
f 29/75/6 33/162/6 31/163/6 27/109/6
f 75/164/6 79/165/6 77/166/6 73/167/6
f 70/168/5 69/101/5 58/169/5 57/170/5
f 79/171/3 80/172/3 78/173/3 77/174/3
f 62/175/1 61/176/1 65/177/1 66/59/1
f 73/178/4 74/179/4 76/180/4 75/181/4
f 59/182/2 63/183/2 65/177/2 61/184/2
f 75/164/5 76/185/5 80/186/5 79/187/5
f 77/188/1 78/189/1 74/190/1 73/167/1
f 70/168/6 57/191/6 68/192/6 72/36/6
f 57/193/3 58/194/3 67/195/3 68/196/3
f 80/197/2 76/185/2 74/190/2 78/198/2
f 64/56/5 63/183/5 59/199/5 60/200/5
f 90/201/4 89/202/4 87/203/4 88/204/4
f 92/205/1 91/206/1 95/207/1 96/208/1
f 96/209/4 95/210/4 93/211/4 94/212/4
f 88/213/6 84/214/6 86/215/6 90/216/6
f 84/217/3 83/218/3 85/219/3 86/220/3
f 82/221/2 93/222/2 95/207/2 91/223/2
f 99/224/6 103/225/6 101/226/6 97/227/6
f 94/228/5 93/222/5 82/229/5 81/230/5
f 103/231/3 104/232/3 102/233/3 101/234/3
f 86/235/1 85/236/1 89/237/1 90/216/1
f 97/238/4 98/239/4 100/240/4 99/241/4
f 83/242/2 87/243/2 89/237/2 85/244/2
f 99/224/5 100/245/5 104/246/5 103/247/5
f 101/248/1 102/249/1 98/250/1 97/227/1
f 94/228/6 81/251/6 92/252/6 96/208/6
f 81/253/3 82/254/3 91/255/3 92/256/3
f 104/257/2 100/245/2 98/250/2 102/258/2
f 88/213/5 87/243/5 83/259/5 84/260/5
usemtl mat3
f 116/261/2 115/262/2 119/263/2 120/264/2
f 108/265/2 107/266/2 111/267/2 112/268/2
f 106/269/3 105/270/3 107/271/3 108/272/3
f 112/273/4 111/274/4 109/275/4 110/276/4
f 105/277/5 109/278/5 111/267/5 107/279/5
f 110/280/6 109/278/6 105/281/6 106/282/6
f 114/283/3 113/284/3 115/285/3 116/286/3
f 120/287/4 119/288/4 117/289/4 118/290/4
f 113/291/5 117/292/5 119/263/5 115/293/5
f 118/294/6 117/292/6 113/295/6 114/296/6
f 124/297/2 123/298/2 127/299/2 128/300/2
f 122/301/3 121/302/3 123/303/3 124/304/3
f 128/305/4 127/306/4 125/307/4 126/308/4
f 121/309/5 125/310/5 127/299/5 123/311/5
f 126/312/6 125/310/6 121/313/6 122/314/6
f 132/315/1 131/316/1 135/317/1 136/318/1
f 130/319/3 129/320/3 131/321/3 132/322/3
f 136/323/4 135/324/4 133/325/4 134/326/4
f 129/327/2 133/328/2 135/317/2 131/329/2
f 129/327/3 130/330/3 137/331/3
f 134/332/5 138/333/5 137/331/5 130/334/5
f 134/332/4 133/328/4 138/335/4
f 138/336/4 133/328/4 140/337/4
f 140/338/13 139/339/13 137/331/13 138/340/13
f 129/327/3 137/341/3 139/342/3
f 133/343/1 129/320/1 139/342/1 140/344/1
