# Blender v2.82 (sub 7) OBJ File: 'street_lamp.blend'
# www.blender.org
mtllib street_lamp.mtl
o street_lamp
v -0.000000 0.006835 -0.500676
v -0.000000 5.534540 0.000000
v 0.433599 0.006835 -0.250338
v 0.433598 0.006835 0.250338
v -0.000000 0.006835 0.500676
v -0.433599 0.006835 0.250338
v -0.433599 0.006835 -0.250338
v -0.000000 0.006835 0.000000
v -0.152137 0.408017 0.087836
v -0.000000 0.408017 0.175673
v 0.152137 0.408017 0.087836
v 0.152137 0.408017 -0.087836
v -0.000000 0.408017 -0.175673
v -0.152137 0.408017 -0.087836
v -0.000000 4.503435 0.000000
v -0.000000 5.863579 0.000000
v 0.500676 5.541966 0.500676
v 0.291845 4.741133 0.291845
v 0.500676 5.541966 -0.500676
v 0.291845 4.741133 -0.291845
v -0.500676 5.541966 -0.500676
v -0.291845 4.741133 -0.291845
v -0.500676 5.541966 0.500676
v -0.291845 4.741133 0.291845
vt 0.483327 0.903092
vt 0.483327 0.000000
vt 0.519806 0.907163
vt 0.365764 0.932588
vt 0.386825 0.000000
vt 0.407886 0.932588
vt 0.149773 0.102172
vt 0.206752 0.773360
vt 0.111905 0.093708
vt 0.077229 0.108114
vt 0.245716 0.932588
vt 0.266776 0.000000
vt 0.287837 0.932588
vt 0.446849 0.907163
vt 0.946066 0.455376
vt 0.899526 0.535025
vt 0.852985 0.455376
vt 0.806444 0.535025
vt 0.759903 0.455376
vt 0.899526 0.375727
vt 0.806444 0.375727
vt 0.678714 0.737590
vt 0.561986 0.737590
vt 0.553144 0.708139
vt 0.653514 0.653652
vt 0.206752 1.000000
vt 0.326801 1.000000
vt 0.098828 0.000000
vt 0.000000 0.041058
vt 0.206752 0.024123
vt 0.326801 1.000000
vt 0.446849 1.000000
vt 0.519806 0.691985
vt 0.558499 0.607614
vt 0.709831 0.457125
vt 0.569878 0.457125
vt 0.639854 0.407710
vt 0.709831 0.257221
vt 0.569878 0.257221
vt 0.639854 0.207805
vt 0.709831 0.055778
vt 0.569878 0.055778
vt 0.639854 0.000000
vt 0.949928 0.069141
vt 0.809975 0.069141
vt 0.879951 0.000000
vt 0.759903 0.375727
vt 0.759903 0.191785
vt 0.899557 0.283756
vt 0.931034 0.375727
vt 0.941976 0.676112
vt 0.759903 0.556206
vt 0.941976 0.535025
vt 0.931034 0.191785
vt 0.759903 0.207805
vt 0.519806 0.207805
vt 0.519806 0.407710
vt 0.759903 0.407710
vt 1.000000 0.191785
vt 0.759903 0.191785
vt 0.759903 0.607614
vt 0.519806 0.607614
vn 0.4998 0.0297 -0.8656
vn 0.9996 0.0297 0.0000
vn 0.4998 0.0297 0.8656
vn -0.4998 0.0297 0.8656
vn -0.9996 0.0297 0.0000
vn -0.4998 0.0297 -0.8656
vn 0.0000 -1.0000 0.0000
vn -0.4093 0.5743 -0.7089
vn -0.8186 0.5743 0.0000
vn -0.4093 0.5743 0.7089
vn 0.4093 0.5743 0.7089
vn 0.8186 0.5743 0.0000
vn 0.4093 0.5743 -0.7089
vn 0.6315 -0.7754 0.0000
vn -0.6315 -0.7754 0.0000
vn 0.0000 -0.7754 -0.6315
vn 0.0000 -0.7754 0.6315
vn 0.0000 0.8414 -0.5405
vn 0.5405 0.8414 0.0000
vn 0.0000 0.8414 0.5405
vn -0.5405 0.8414 0.0000
vn 0.0000 -0.2523 -0.9676
vn -0.9676 -0.2523 0.0000
vn 0.0000 -0.2523 0.9676
vn 0.9676 -0.2523 0.0000
usemtl mat1
s off
f 13/1/1 2/2/1 12/3/1
f 12/4/2 2/5/2 11/6/2
f 11/7/3 2/8/3 10/9/3
f 10/9/4 2/8/4 9/10/4
f 9/11/5 2/12/5 14/13/5
f 14/14/6 2/2/6 13/1/6
f 1/15/7 3/16/7 8/17/7
f 4/18/7 5/19/7 8/17/7
f 7/20/7 1/15/7 8/17/7
f 5/19/7 6/21/7 8/17/7
f 3/16/7 4/18/7 8/17/7
f 6/21/7 7/20/7 8/17/7
f 7/22/8 14/23/8 13/24/8 1/25/8
f 6/26/9 9/11/9 14/13/9 7/27/9
f 5/28/10 10/9/10 9/10/10 6/29/10
f 4/30/11 11/7/11 10/9/11 5/28/11
f 3/31/12 12/4/12 11/6/12 4/32/12
f 1/25/13 13/24/13 12/33/13 3/34/13
f 20/35/14 18/36/14 15/37/14
f 24/38/15 22/39/15 15/40/15
f 22/41/16 20/42/16 15/43/16
f 18/44/17 24/45/17 15/46/17
f 19/47/18 21/48/18 16/49/18
f 17/50/19 19/47/19 16/49/19
f 23/51/20 17/52/20 16/53/20
f 21/48/21 23/54/21 16/49/21
usemtl mat2
f 20/42/22 22/41/22 21/55/22 19/56/22
f 21/57/23 22/39/23 24/38/23 23/58/23
f 24/45/24 18/44/24 17/59/24 23/60/24
f 18/36/25 20/35/25 19/61/25 17/62/25
